<?xml version="1.0" encoding="iso-8859-1"?>
<!-- Generator: Adobe Illustrator 16.0.0, SVG Export Plug-In . SVG Version: 6.00 Build 0)  -->
<!DOCTYPE svg PUBLIC "-//W3C//DTD SVG 1.1//EN" "http://www.w3.org/Graphics/SVG/1.1/DTD/svg11.dtd">
<svg version="1.1" id="Capa_1" xmlns="http://www.w3.org/2000/svg" xmlns:xlink="http://www.w3.org/1999/xlink" x="0px" y="0px"
	 width="44.17px" height="44.17px" viewBox="0 0 44.17 44.17" style="enable-background:new 0 0 44.17 44.17;" xml:space="preserve"
	>
<g>
	<path style="fill:#FFB603;"  d="M44.144,29.747l-0.532-2.99c-0.153-0.867-0.95-1.688-1.813-1.871l-3.839-0.812c0.667-0.704,1.187-1.635,1.537-2.566
		c0.489-0.178,0.982-0.615,1.125-1.184c0.189-0.757-0.01-1.431-0.479-1.724v-0.535c0.428-1.286,0.649-3.395-1.292-4.528
		c-0.873-0.51-1.587-0.531-2.134-0.354c-0.098-0.221,0.166-0.553,0.166-0.553c-0.448-0.017-0.683,0.225-0.778,0.358
		c-0.599-0.274-1.38-0.395-2.382-0.184c-3.223,0.676-3.62,4.891-3.025,5.797c-0.466,0.293-0.664,0.965-0.476,1.717
		c0.143,0.572,0.639,1.012,1.131,1.188c0.346,0.932,0.859,1.86,1.524,2.565l-3.833,0.81c-0.411,0.086-0.806,0.322-1.124,0.635
		l-2.579-0.543c0.961-0.961,1.703-2.268,2.198-3.582c0.656-0.237,1.316-0.821,1.508-1.586c0.254-1.012-0.013-1.914-0.642-2.308
		v-0.715c0.573-1.727,0.872-4.549-1.729-6.067c-1.166-0.681-2.132-0.726-2.861-0.486c-0.112-0.295,0.228-0.725,0.228-0.725
		c-0.6-0.021-0.915,0.299-1.044,0.479c-0.8-0.369-1.848-0.527-3.189-0.244c-4.305,0.902-4.852,6.543-4.063,7.773
		c-0.614,0.398-0.876,1.289-0.625,2.291c0.192,0.764,0.856,1.354,1.516,1.588c0.488,1.315,1.223,2.624,2.183,3.583l-2.569,0.541
		c-0.319-0.312-0.713-0.549-1.125-0.635l-3.839-0.811c0.667-0.705,1.186-1.637,1.537-2.567c0.49-0.178,0.983-0.615,1.125-1.184
		c0.19-0.757-0.009-1.431-0.479-1.724V18.06c0.428-1.286,0.65-3.395-1.292-4.528c-0.873-0.51-1.587-0.531-2.133-0.353
		c-0.098-0.221,0.166-0.553,0.166-0.553c-0.449-0.017-0.683,0.225-0.779,0.358c-0.598-0.274-1.38-0.395-2.382-0.184
		c-3.222,0.676-3.62,4.891-3.025,5.797c-0.466,0.293-0.665,0.965-0.476,1.717c0.143,0.572,0.639,1.012,1.131,1.188
		c0.346,0.932,0.86,1.861,1.525,2.566l-3.833,0.809c-0.862,0.182-1.658,1.004-1.812,1.871l-0.533,2.99
		c-0.083,0.465,0.034,0.928,0.319,1.268c0.285,0.34,0.72,0.535,1.191,0.535h9.196l-0.162,0.91c-0.103,0.582,0.036,1.135,0.391,1.559
		s0.875,0.656,1.466,0.656h19.317c0.583,0,1.116-0.238,1.467-0.656c0.354-0.424,0.493-0.979,0.391-1.559l-0.162-0.91h9.195
		c0.473,0,0.907-0.195,1.192-0.535C44.108,30.673,44.227,30.212,44.144,29.747z M43.059,30.372
		c-0.098,0.114-0.248,0.178-0.427,0.178h-2.609v-0.328h3.108C43.111,30.277,43.093,30.329,43.059,30.372z M33.258,30.55
		l-0.373-2.094c-0.194-1.103-1.203-2.144-2.297-2.373l-1.189-0.25l2.573-0.543c0.938,0.885,2.174,1.405,3.471,1.405
		c1.312,0,2.524-0.508,3.471-1.397l2.679,0.565c0.469,0.099,0.953,0.599,1.036,1.066l0.407,2.289h-3.014V28.99
		c0-0.275-0.225-0.5-0.5-0.5s-0.5,0.225-0.5,0.5v1.559L33.258,30.55L33.258,30.55z M32.481,31.896h-4.406v-0.359v-0.119
		c0-0.205-0.124-0.379-0.301-0.457c-0.01-0.004-0.021-0.004-0.031-0.008c-0.054-0.021-0.108-0.035-0.168-0.035
		c-0.177,0-0.324,0.098-0.413,0.232c-0.052,0.078-0.087,0.166-0.087,0.268v2.258H17.09v-2.258c0-0.102-0.037-0.189-0.087-0.268
		c-0.089-0.138-0.237-0.232-0.413-0.232c-0.059,0-0.114,0.016-0.167,0.033c-0.011,0.006-0.023,0.006-0.034,0.01
		c-0.176,0.078-0.3,0.252-0.3,0.457v0.119v0.357h-4.406l0.062-0.347l0.089-0.5l0.089-0.5l0.342-1.92
		c0.123-0.688,0.833-1.422,1.518-1.567l2.054-0.433l0.489-0.104l0.514-0.108l0.645-0.136c1.232,1.201,2.894,1.894,4.625,1.894
		c1.748,0,3.374-0.672,4.618-1.883l0.598,0.125l0.514,0.108l0.489,0.104l2.053,0.433c0.688,0.146,1.396,0.879,1.521,1.567
		l0.342,1.92l0.089,0.5l0.089,0.5L32.481,31.896z M32.44,33.376c-0.162,0.19-0.409,0.299-0.699,0.299h-3.666v-0.778h4.533
		C32.597,33.074,32.551,33.245,32.44,33.376z M12.424,33.675c-0.289,0-0.538-0.104-0.699-0.299c-0.11-0.131-0.155-0.3-0.168-0.479
		h4.534v0.778H12.424L12.424,33.675z M1.535,30.55c-0.178,0-0.329-0.062-0.425-0.178c-0.036-0.043-0.054-0.099-0.073-0.15h3.108
		v0.328H1.535z M4.646,28.49c-0.276,0-0.5,0.226-0.5,0.5v0.23H1.133l0.408-2.289c0.083-0.471,0.567-0.971,1.035-1.068l2.72-0.573
		c0.938,0.885,2.174,1.405,3.471,1.405c1.312,0,2.525-0.506,3.47-1.397l2.532,0.535l-1.19,0.25
		c-1.092,0.231-2.101,1.272-2.296,2.371l-0.373,2.096H5.146v-1.56C5.146,28.716,4.921,28.49,4.646,28.49z M8.746,25.3
		c0.551,0,1.052-0.162,1.512-0.42l0.723,0.153c-0.653,0.425-1.411,0.66-2.213,0.66c-0.793,0-1.559-0.244-2.214-0.672l0.677-0.143
		C7.688,25.14,8.191,25.3,8.746,25.3z M22.083,26.472c0.831,0,1.584-0.254,2.26-0.682l1.159,0.243
		c-0.971,0.734-2.145,1.142-3.391,1.142c-1.235,0-2.428-0.414-3.4-1.149l1.104-0.232C20.49,26.218,21.248,26.472,22.083,26.472z
		 M35.42,25.3c0.552,0,1.053-0.162,1.513-0.42l0.723,0.153c-0.652,0.425-1.41,0.66-2.213,0.66c-0.793,0-1.56-0.244-2.214-0.672
		l0.676-0.143C34.364,25.14,34.866,25.3,35.42,25.3z M31.862,20.909c-0.261,0.058-0.862-0.271-0.982-0.75
		c-0.122-0.485-0.006-0.938,0.26-1.016c0.077-0.02,0.159-0.004,0.24,0.039v-0.727c0.002-0.002,0.003-0.002,0.005-0.006
		c-0.002-0.011-0.003-0.025-0.005-0.037V18.17c0.062-0.615,0.641-1.793,3.855-0.738c1.104,0.361,1.782-0.213,2.125-0.973
		c1.093,0.119,1.821,1.356,2.101,2.121v0.604c0.081-0.045,0.163-0.061,0.241-0.041c0.265,0.076,0.381,0.529,0.259,1.016
		c-0.119,0.474-0.717,0.799-0.978,0.75c-0.324,0.988-0.954,2.229-1.841,2.996c-0.18,0.153-0.369,0.285-0.567,0.395
		c-0.354,0.195-0.737,0.32-1.155,0.32c-0.423,0-0.811-0.123-1.167-0.318c-0.199-0.105-0.391-0.238-0.568-0.393
		C32.806,23.148,32.188,21.919,31.862,20.909z M17.318,20.592c-0.349,0.074-1.156-0.365-1.316-1.004
		c-0.164-0.652-0.008-1.26,0.346-1.359c0.105-0.029,0.214-0.006,0.323,0.051v-0.973c0.002-0.004,0.004-0.006,0.006-0.008
		c-0.002-0.014-0.004-0.033-0.006-0.049v-0.328c0.085-0.824,0.862-2.396,5.164-0.986c1.479,0.486,2.393-0.283,2.853-1.303
		c1.459,0.162,2.433,1.818,2.807,2.84v0.809c0.054-0.029,0.107-0.049,0.163-0.059c-0.003,0.006,0,0.021-0.004,0.025
		c0.013,0.014,0.034,0.006,0.062-0.023c0.034-0.002,0.067-0.006,0.101,0.004c0.354,0.1,0.511,0.707,0.348,1.359
		c-0.159,0.633-0.96,1.07-1.309,1.004c-0.455,1.383-1.353,3.141-2.626,4.15c-0.188,0.146-0.382,0.277-0.585,0.394
		c-0.333,0.185-0.687,0.315-1.062,0.379c-0.163,0.027-0.33,0.046-0.5,0.046c-0.173,0-0.341-0.019-0.505-0.046
		c-0.379-0.061-0.736-0.192-1.071-0.377c-0.204-0.11-0.399-0.241-0.586-0.391C18.654,23.747,17.773,22.008,17.318,20.592z
		 M5.188,20.909c-0.261,0.058-0.863-0.271-0.983-0.75c-0.122-0.485-0.006-0.938,0.259-1.016c0.078-0.02,0.16-0.004,0.241,0.039
		v-0.727c0.001-0.002,0.003-0.002,0.005-0.006c-0.002-0.011-0.003-0.025-0.005-0.037V18.17c0.063-0.615,0.64-1.793,3.856-0.738
		c1.104,0.361,1.781-0.213,2.125-0.973c1.092,0.119,1.82,1.356,2.1,2.121v0.604c0.081-0.045,0.163-0.061,0.241-0.041
		c0.265,0.076,0.381,0.529,0.259,1.016c-0.119,0.474-0.717,0.799-0.977,0.75c-0.325,0.988-0.954,2.229-1.841,2.996
		c-0.178,0.153-0.368,0.285-0.567,0.395c-0.355,0.195-0.738,0.32-1.156,0.32c-0.423,0-0.81-0.123-1.167-0.318
		c-0.2-0.105-0.391-0.238-0.569-0.393C6.13,23.148,5.514,21.919,5.188,20.909z"/>
</g>
<g>
</g>
<g>
</g>
<g>
</g>
<g>
</g>
<g>
</g>
<g>
</g>
<g>
</g>
<g>
</g>
<g>
</g>
<g>
</g>
<g>
</g>
<g>
</g>
<g>
</g>
<g>
</g>
<g>
</g>
</svg>
