<?xml version="1.0" encoding="iso-8859-1"?>
<!-- Generator: Adobe Illustrator 19.0.0, SVG Export Plug-In . SVG Version: 6.00 Build 0)  -->
<svg version="1.1" id="Layer_1" xmlns="http://www.w3.org/2000/svg" xmlns:xlink="http://www.w3.org/1999/xlink" x="0px" y="0px"
	 viewBox="0 0 447.927 447.927" style="enable-background:new 0 0 447.927 447.927;" xml:space="preserve">
<g transform="translate(0 -1020.36)" shape-rendering="auto" image-rendering="auto" color-rendering="auto" color-interpolation="sRGB">
	<path style="fill:#FFB603;" d="M110.184,1380.641c2.547,3.209,2.259,7.822-0.668,10.689l-74.663,74.666
		c-3.11,3.043-8.081,3.043-11.191,0l-21.38-21.381c-3.043-3.109-3.043-8.082,0-11.191l74.663-74.664
		c3.12-3.098,8.155-3.098,11.275,0l21.38,21.381c0.206,0.191,0.402,0.395,0.587,0.607L110.184,1380.641z"/>
	<path style="fill:#0A2034;" d="M92.646,1385.655l-10.022-10.021l-63.389,63.391l10.022,10.021L92.646,1385.655z"/>
	<path style="fill:#FFB603;" d="M319.173,1023.333c-38.104,7.002-75.763,25.447-100.039,49.725
		c-24.276,24.275-39.28,58.721-42.52,93.426c-3.24,34.703,5.451,70.174,30.236,94.961c24.785,24.783,60.256,33.475,94.961,30.236
		c34.704-3.242,69.149-18.244,93.425-42.52c24.276-24.277,42.724-61.934,49.724-100.039c7-38.104,2.475-77.482-22.913-102.874
		C396.659,1020.861,357.277,1016.334,319.173,1023.333L319.173,1023.333z"/>
	<path style="fill:#0A2034;" d="M322.008,1039.042c34.944-6.419,68.595-1.552,88.701,18.545
		c20.107,20.107,24.963,53.756,18.543,88.701c-6.42,34.943-24.135,70.314-45.354,91.535c-21.219,21.219-52.559,35.014-83.622,37.914
		c-31.063,2.898-61.377-4.922-82.087-25.631c-20.71-20.711-28.529-51.021-25.63-82.086c2.9-31.063,16.694-62.402,37.913-83.621
		c21.219-21.219,56.592-38.935,91.535-45.355L322.008,1039.042z"/>
	<path style="fill:#0A2034;" d="M321.553,1044.336c33.367-6.13,65.499-1.488,84.698,17.708
		c19.199,19.199,23.836,51.33,17.706,84.697c-6.13,33.367-23.046,67.143-43.307,87.404c-20.261,20.26-50.187,33.432-79.848,36.201
		c-29.661,2.764-58.607-4.699-78.382-24.473c-19.776-19.775-27.242-48.721-24.473-78.381c2.769-29.662,15.941-59.588,36.202-79.85
		C254.41,1067.382,288.186,1050.468,321.553,1044.336L321.553,1044.336z"/>
	<g>
		<path style="fill:#FFB603;" d="M410.72,1046.253l-267.75,267.721l11.344,11.342l267.719-267.719L410.72,1046.253z
			 M131.658,1325.284l-11.125,11.156l11.312,11.313l11.156-11.125L131.658,1325.284L131.658,1325.284z M109.22,1347.753
			l-21.312,21.281l11.344,11.342l21.281-21.313l-11.312-11.313L109.22,1347.753z"/>
		<path style="fill:#FFB603;" d="M346.276,1022.716l-168,168l11.313,11.314l168-168L346.276,1022.716L346.276,1022.716z"/>
		<path style="fill:#FFB603;" d="M434.276,1110.716l-168,168l11.313,11.314l168-168L434.276,1110.716z"/>
		<path style="fill:#FFB603;" d="M299.245,1036.371l-11.313,11.313L420.62,1180.37l11.313-11.313l-132.688-132.688V1036.371z"/>
		<path style="fill:#FFB603;" d="M251.245,1052.372l-11.313,11.314l164.687,164.686l11.313-11.313L251.245,1052.372z"/>
		<path style="fill:#FFB603;" d="M219.245,1084.372l-11.313,11.314l164.687,164.686l11.313-11.313L219.245,1084.372z"/>
		<path style="fill:#FFB603;" d="M195.245,1132.372l-11.313,11.314l140.687,140.686l11.313-11.313L195.245,1132.372z"/>
		<path style="fill:#FFB603;" d="M349.589,1022.716l-11.313,11.314l96,95.999l11.313-11.314l-96-96V1022.716z"/>
		<path style="fill:#FFB603;" d="M193.589,1186.716l-11.313,11.314l86.344,86.342l11.313-11.313L193.589,1186.716L193.589,1186.716z
			"/>
	</g>
	<path style="fill:#0A2034;" d="M87.97,1380.94l-63.406,63.406l4.688,4.688l63.406-63.377l-4.688-4.719V1380.94z"/>
</g>
<g>
</g>
<g>
</g>
<g>
</g>
<g>
</g>
<g>
</g>
<g>
</g>
<g>
</g>
<g>
</g>
<g>
</g>
<g>
</g>
<g>
</g>
<g>
</g>
<g>
</g>
<g>
</g>
<g>
</g>
</svg>
